<mxfile host="65bd71144e">
    <diagram name="All 10 Zaps Connected" id="system-overview">
        <mxGraphModel dx="644" dy="694" grid="1" gridSize="10" guides="1" tooltips="1" connect="1" arrows="1" fold="1" page="1" pageScale="1" pageWidth="1600" pageHeight="1200" math="0" shadow="0">
            <root>
                <mxCell id="0"/>
                <mxCell id="1" parent="0"/>
                <mxCell id="title" value="Complete Accounting Automation System - All 10 Zaps" style="text;html=1;strokeColor=none;fillColor=none;align=center;verticalAlign=middle;whiteSpace=wrap;rounded=0;fontSize=24;fontStyle=1" parent="1" vertex="1">
                    <mxGeometry x="400" y="20" width="800" height="40" as="geometry"/>
                </mxCell>
                <mxCell id="zap1" value="ZAP #1&#10;Invoice &amp; Receipt&#10;Tracking" style="rounded=1;whiteSpace=wrap;html=1;fillColor=#d5e8d4;strokeColor=#82b366;fontSize=14;fontStyle=1" parent="1" vertex="1">
                    <mxGeometry x="90" width="160" height="80" as="geometry"/>
                </mxCell>
                <mxCell id="zap2" value="ZAP #2&#10;Expense Tracking&#10;by Project" style="rounded=1;whiteSpace=wrap;html=1;fillColor=#d5e8d4;strokeColor=#82b366;fontSize=14;fontStyle=1" parent="1" vertex="1">
                    <mxGeometry x="80" y="230" width="160" height="80" as="geometry"/>
                </mxCell>
                <mxCell id="zap3" value="ZAP #3&#10;Accounts Receivable&#10;Progress Billing" style="rounded=1;whiteSpace=wrap;html=1;fillColor=#fff2cc;strokeColor=#d6b656;fontSize=14;fontStyle=1" parent="1" vertex="1">
                    <mxGeometry x="80" y="340" width="160" height="80" as="geometry"/>
                </mxCell>
                <mxCell id="zap4" value="ZAP #4&#10;Vendor Payments&#10;Accounts Payable" style="rounded=1;whiteSpace=wrap;html=1;fillColor=#ffe6cc;strokeColor=#d79b00;fontSize=14;fontStyle=1" parent="1" vertex="1">
                    <mxGeometry x="80" y="450" width="160" height="80" as="geometry"/>
                </mxCell>
                <mxCell id="zap5" value="ZAP #5&#10;Subcontractor&#10;Management" style="rounded=1;whiteSpace=wrap;html=1;fillColor=#ffe6cc;strokeColor=#d79b00;fontSize=14;fontStyle=1" parent="1" vertex="1">
                    <mxGeometry x="80" y="560" width="160" height="80" as="geometry"/>
                </mxCell>
                <mxCell id="zap6" value="ZAP #6&#10;Monthly Financial&#10;Reporting" style="rounded=1;whiteSpace=wrap;html=1;fillColor=#e1d5e7;strokeColor=#9673a6;fontSize=14;fontStyle=1" parent="1" vertex="1">
                    <mxGeometry x="80" y="670" width="160" height="80" as="geometry"/>
                </mxCell>
                <mxCell id="zap7" value="ZAP #7&#10;Receipt&#10;Management" style="rounded=1;whiteSpace=wrap;html=1;fillColor=#d5e8d4;strokeColor=#82b366;fontSize=14;fontStyle=1" parent="1" vertex="1">
                    <mxGeometry x="80" y="780" width="160" height="80" as="geometry"/>
                </mxCell>
                <mxCell id="zap8" value="ZAP #8&#10;Bank&#10;Reconciliation" style="rounded=1;whiteSpace=wrap;html=1;fillColor=#dae8fc;strokeColor=#6c8ebf;fontSize=14;fontStyle=1" parent="1" vertex="1">
                    <mxGeometry x="80" y="890" width="160" height="80" as="geometry"/>
                </mxCell>
                <mxCell id="zap9" value="ZAP #9&#10;Time Tracking&#10;to Billing" style="rounded=1;whiteSpace=wrap;html=1;fillColor=#fff2cc;strokeColor=#d6b656;fontSize=14;fontStyle=1" parent="1" vertex="1">
                    <mxGeometry x="80" y="1000" width="160" height="80" as="geometry"/>
                </mxCell>
                <mxCell id="zap10" value="ZAP #10&#10;Purchase Order&#10;Tracking" style="rounded=1;whiteSpace=wrap;html=1;fillColor=#f8cecc;strokeColor=#b85450;fontSize=14;fontStyle=1" parent="1" vertex="1">
                    <mxGeometry x="80" y="1110" width="160" height="80" as="geometry"/>
                </mxCell>
                <mxCell id="drive" value="Google Drive&#10;(File Storage)" style="rounded=1;whiteSpace=wrap;html=1;fillColor=#b1ddf0;strokeColor=#10739e;fontSize=16;fontStyle=1" parent="1" vertex="1">
                    <mxGeometry x="400" y="200" width="200" height="100" as="geometry"/>
                </mxCell>
                <mxCell id="sheets" value="Google Sheets&#10;(Tracking &amp; Data)" style="rounded=1;whiteSpace=wrap;html=1;fillColor=#b1ddf0;strokeColor=#10739e;fontSize=16;fontStyle=1" parent="1" vertex="1">
                    <mxGeometry x="400" y="400" width="200" height="100" as="geometry"/>
                </mxCell>
                <mxCell id="quickbooks" value="QuickBooks&#10;(Accounting Core)" style="rounded=1;whiteSpace=wrap;html=1;fillColor=#76d7c4;strokeColor=#16a085;fontSize=16;fontStyle=1" parent="1" vertex="1">
                    <mxGeometry x="400" y="600" width="200" height="100" as="geometry"/>
                </mxCell>
                <mxCell id="notifications" value="Notifications&#10;(Slack/Email/SMS)" style="rounded=1;whiteSpace=wrap;html=1;fillColor=#f9e79f;strokeColor=#d4ac0d;fontSize=16;fontStyle=1" parent="1" vertex="1">
                    <mxGeometry x="400" y="800" width="200" height="100" as="geometry"/>
                </mxCell>
                <mxCell id="reports" value="Reports &amp; Dashboards&#10;(Analytics)" style="rounded=1;whiteSpace=wrap;html=1;fillColor=#d7bde2;strokeColor=#7d3c98;fontSize=16;fontStyle=1" parent="1" vertex="1">
                    <mxGeometry x="400" y="1000" width="200" height="100" as="geometry"/>
                </mxCell>
                <mxCell id="centralized" value="Centralized&#10;Data Hub" style="rounded=1;whiteSpace=wrap;html=1;fillColor=#85c1e2;strokeColor=#0e5d8a;fontSize=18;fontStyle=1" parent="1" vertex="1">
                    <mxGeometry x="800" y="450" width="240" height="120" as="geometry"/>
                </mxCell>
                <mxCell id="visibility" value="Real-Time&#10;Financial Visibility" style="rounded=1;whiteSpace=wrap;html=1;fillColor=#52be80;strokeColor=#27ae60;fontSize=18;fontStyle=1" parent="1" vertex="1">
                    <mxGeometry x="1150" y="450" width="240" height="120" as="geometry"/>
                </mxCell>
                <mxCell id="impact1" value="⏱️ 1,440 Hours&#10;Saved Per Year" style="rounded=1;whiteSpace=wrap;html=1;fillColor=#f39c12;strokeColor=#d68910;fontSize=16;fontStyle=1;fontColor=#FFFFFF" parent="1" vertex="1">
                    <mxGeometry x="1150" y="650" width="240" height="80" as="geometry"/>
                </mxCell>
                <mxCell id="impact2" value="💰 $30K-$70K&#10;Value Per Year" style="rounded=1;whiteSpace=wrap;html=1;fillColor=#27ae60;strokeColor=#1e8449;fontSize=16;fontStyle=1;fontColor=#FFFFFF" parent="1" vertex="1">
                    <mxGeometry x="1150" y="760" width="240" height="80" as="geometry"/>
                </mxCell>
                <mxCell id="z1-drive" style="edgeStyle=orthogonalEdgeStyle;rounded=1;orthogonalLoop=1;jettySize=auto;html=1;strokeColor=#2980b9;strokeWidth=3;" parent="1" source="zap1" target="drive" edge="1">
                    <mxGeometry relative="1" as="geometry"/>
                </mxCell>
                <mxCell id="z2-drive" style="edgeStyle=orthogonalEdgeStyle;rounded=1;orthogonalLoop=1;jettySize=auto;html=1;strokeColor=#2980b9;strokeWidth=3;" parent="1" source="zap2" target="drive" edge="1">
                    <mxGeometry relative="1" as="geometry"/>
                </mxCell>
                <mxCell id="z7-drive" style="edgeStyle=orthogonalEdgeStyle;rounded=1;orthogonalLoop=1;jettySize=auto;html=1;strokeColor=#2980b9;strokeWidth=3;" parent="1" source="zap7" target="drive" edge="1">
                    <mxGeometry relative="1" as="geometry"/>
                </mxCell>
                <mxCell id="z1-sheets" style="edgeStyle=orthogonalEdgeStyle;rounded=1;orthogonalLoop=1;jettySize=auto;html=1;strokeColor=#16a085;strokeWidth=3;" parent="1" source="zap1" target="sheets" edge="1">
                    <mxGeometry relative="1" as="geometry"/>
                </mxCell>
                <mxCell id="z2-sheets" style="edgeStyle=orthogonalEdgeStyle;rounded=1;orthogonalLoop=1;jettySize=auto;html=1;strokeColor=#16a085;strokeWidth=3;" parent="1" source="zap2" target="sheets" edge="1">
                    <mxGeometry relative="1" as="geometry"/>
                </mxCell>
                <mxCell id="z3-sheets" style="edgeStyle=orthogonalEdgeStyle;rounded=1;orthogonalLoop=1;jettySize=auto;html=1;strokeColor=#16a085;strokeWidth=3;" parent="1" source="zap3" target="sheets" edge="1">
                    <mxGeometry relative="1" as="geometry"/>
                </mxCell>
                <mxCell id="z4-sheets" style="edgeStyle=orthogonalEdgeStyle;rounded=1;orthogonalLoop=1;jettySize=auto;html=1;strokeColor=#16a085;strokeWidth=3;" parent="1" source="zap4" target="sheets" edge="1">
                    <mxGeometry relative="1" as="geometry"/>
                </mxCell>
                <mxCell id="z8-sheets" style="edgeStyle=orthogonalEdgeStyle;rounded=1;orthogonalLoop=1;jettySize=auto;html=1;strokeColor=#16a085;strokeWidth=3;" parent="1" source="zap8" target="sheets" edge="1">
                    <mxGeometry relative="1" as="geometry"/>
                </mxCell>
                <mxCell id="z9-sheets" style="edgeStyle=orthogonalEdgeStyle;rounded=1;orthogonalLoop=1;jettySize=auto;html=1;strokeColor=#16a085;strokeWidth=3;" parent="1" source="zap9" target="sheets" edge="1">
                    <mxGeometry relative="1" as="geometry"/>
                </mxCell>
                <mxCell id="z10-sheets" style="edgeStyle=orthogonalEdgeStyle;rounded=1;orthogonalLoop=1;jettySize=auto;html=1;strokeColor=#16a085;strokeWidth=3;" parent="1" source="zap10" target="sheets" edge="1">
                    <mxGeometry relative="1" as="geometry"/>
                </mxCell>
                <mxCell id="z1-qb" style="edgeStyle=orthogonalEdgeStyle;rounded=1;orthogonalLoop=1;jettySize=auto;html=1;strokeColor=#27ae60;strokeWidth=3;" parent="1" source="zap1" target="quickbooks" edge="1">
                    <mxGeometry relative="1" as="geometry"/>
                </mxCell>
                <mxCell id="z2-qb" style="edgeStyle=orthogonalEdgeStyle;rounded=1;orthogonalLoop=1;jettySize=auto;html=1;strokeColor=#27ae60;strokeWidth=3;" parent="1" source="zap2" target="quickbooks" edge="1">
                    <mxGeometry relative="1" as="geometry"/>
                </mxCell>
                <mxCell id="z3-qb" style="edgeStyle=orthogonalEdgeStyle;rounded=1;orthogonalLoop=1;jettySize=auto;html=1;strokeColor=#27ae60;strokeWidth=3;" parent="1" source="zap3" target="quickbooks" edge="1">
                    <mxGeometry relative="1" as="geometry"/>
                </mxCell>
                <mxCell id="z4-qb" style="edgeStyle=orthogonalEdgeStyle;rounded=1;orthogonalLoop=1;jettySize=auto;html=1;strokeColor=#27ae60;strokeWidth=3;" parent="1" source="zap4" target="quickbooks" edge="1">
                    <mxGeometry relative="1" as="geometry"/>
                </mxCell>
                <mxCell id="z5-qb" style="edgeStyle=orthogonalEdgeStyle;rounded=1;orthogonalLoop=1;jettySize=auto;html=1;strokeColor=#27ae60;strokeWidth=3;" parent="1" source="zap5" target="quickbooks" edge="1">
                    <mxGeometry relative="1" as="geometry"/>
                </mxCell>
                <mxCell id="z6-qb" style="edgeStyle=orthogonalEdgeStyle;rounded=1;orthogonalLoop=1;jettySize=auto;html=1;strokeColor=#27ae60;strokeWidth=3;" parent="1" source="zap6" target="quickbooks" edge="1">
                    <mxGeometry relative="1" as="geometry"/>
                </mxCell>
                <mxCell id="z8-qb" style="edgeStyle=orthogonalEdgeStyle;rounded=1;orthogonalLoop=1;jettySize=auto;html=1;strokeColor=#27ae60;strokeWidth=3;" parent="1" source="zap8" target="quickbooks" edge="1">
                    <mxGeometry relative="1" as="geometry"/>
                </mxCell>
                <mxCell id="z10-qb" style="edgeStyle=orthogonalEdgeStyle;rounded=1;orthogonalLoop=1;jettySize=auto;html=1;strokeColor=#27ae60;strokeWidth=3;" parent="1" source="zap10" target="quickbooks" edge="1">
                    <mxGeometry relative="1" as="geometry"/>
                </mxCell>
                <mxCell id="z1-notif" style="edgeStyle=orthogonalEdgeStyle;rounded=1;orthogonalLoop=1;jettySize=auto;html=1;strokeColor=#f39c12;strokeWidth=3;" parent="1" source="zap1" target="notifications" edge="1">
                    <mxGeometry relative="1" as="geometry">
                        <Array as="points">
                            <mxPoint x="500" y="140"/>
                        </Array>
                    </mxGeometry>
                </mxCell>
                <mxCell id="z3-notif" style="edgeStyle=orthogonalEdgeStyle;rounded=1;orthogonalLoop=1;jettySize=auto;html=1;strokeColor=#f39c12;strokeWidth=3;" parent="1" source="zap3" target="notifications" edge="1">
                    <mxGeometry relative="1" as="geometry"/>
                </mxCell>
                <mxCell id="z4-notif" style="edgeStyle=orthogonalEdgeStyle;rounded=1;orthogonalLoop=1;jettySize=auto;html=1;strokeColor=#f39c12;strokeWidth=3;" parent="1" source="zap4" target="notifications" edge="1">
                    <mxGeometry relative="1" as="geometry"/>
                </mxCell>
                <mxCell id="z5-notif" style="edgeStyle=orthogonalEdgeStyle;rounded=1;orthogonalLoop=1;jettySize=auto;html=1;strokeColor=#f39c12;strokeWidth=3;" parent="1" source="zap5" target="notifications" edge="1">
                    <mxGeometry relative="1" as="geometry"/>
                </mxCell>
                <mxCell id="z7-notif" style="edgeStyle=orthogonalEdgeStyle;rounded=1;orthogonalLoop=1;jettySize=auto;html=1;strokeColor=#f39c12;strokeWidth=3;" parent="1" source="zap7" target="notifications" edge="1">
                    <mxGeometry relative="1" as="geometry"/>
                </mxCell>
                <mxCell id="z8-notif" style="edgeStyle=orthogonalEdgeStyle;rounded=1;orthogonalLoop=1;jettySize=auto;html=1;strokeColor=#f39c12;strokeWidth=3;" parent="1" source="zap8" target="notifications" edge="1">
                    <mxGeometry relative="1" as="geometry"/>
                </mxCell>
                <mxCell id="z9-notif" style="edgeStyle=orthogonalEdgeStyle;rounded=1;orthogonalLoop=1;jettySize=auto;html=1;strokeColor=#f39c12;strokeWidth=3;" parent="1" source="zap9" target="notifications" edge="1">
                    <mxGeometry relative="1" as="geometry"/>
                </mxCell>
                <mxCell id="z6-reports" style="edgeStyle=orthogonalEdgeStyle;rounded=1;orthogonalLoop=1;jettySize=auto;html=1;strokeColor=#8e44ad;strokeWidth=3;" parent="1" source="zap6" target="reports" edge="1">
                    <mxGeometry relative="1" as="geometry"/>
                </mxCell>
                <mxCell id="z9-reports" style="edgeStyle=orthogonalEdgeStyle;rounded=1;orthogonalLoop=1;jettySize=auto;html=1;strokeColor=#8e44ad;strokeWidth=3;" parent="1" source="zap9" target="reports" edge="1">
                    <mxGeometry relative="1" as="geometry"/>
                </mxCell>
                <mxCell id="z10-reports" style="edgeStyle=orthogonalEdgeStyle;rounded=1;orthogonalLoop=1;jettySize=auto;html=1;strokeColor=#8e44ad;strokeWidth=3;" parent="1" source="zap10" target="reports" edge="1">
                    <mxGeometry relative="1" as="geometry"/>
                </mxCell>
                <mxCell id="drive-central" style="edgeStyle=orthogonalEdgeStyle;rounded=1;orthogonalLoop=1;jettySize=auto;html=1;strokeColor=#1a5490;strokeWidth=4;" parent="1" source="drive" target="centralized" edge="1">
                    <mxGeometry relative="1" as="geometry"/>
                </mxCell>
                <mxCell id="sheets-central" style="edgeStyle=orthogonalEdgeStyle;rounded=1;orthogonalLoop=1;jettySize=auto;html=1;strokeColor=#1a5490;strokeWidth=4;" parent="1" source="sheets" target="centralized" edge="1">
                    <mxGeometry relative="1" as="geometry"/>
                </mxCell>
                <mxCell id="qb-central" style="edgeStyle=orthogonalEdgeStyle;rounded=1;orthogonalLoop=1;jettySize=auto;html=1;strokeColor=#1a5490;strokeWidth=4;" parent="1" source="quickbooks" target="centralized" edge="1">
                    <mxGeometry relative="1" as="geometry"/>
                </mxCell>
                <mxCell id="notif-central" style="edgeStyle=orthogonalEdgeStyle;rounded=1;orthogonalLoop=1;jettySize=auto;html=1;strokeColor=#1a5490;strokeWidth=4;" parent="1" source="notifications" target="centralized" edge="1">
                    <mxGeometry relative="1" as="geometry"/>
                </mxCell>
                <mxCell id="reports-central" style="edgeStyle=orthogonalEdgeStyle;rounded=1;orthogonalLoop=1;jettySize=auto;html=1;strokeColor=#1a5490;strokeWidth=4;" parent="1" source="reports" target="centralized" edge="1">
                    <mxGeometry relative="1" as="geometry"/>
                </mxCell>
                <mxCell id="central-visibility" style="edgeStyle=orthogonalEdgeStyle;rounded=1;orthogonalLoop=1;jettySize=auto;html=1;strokeColor=#186a3b;strokeWidth=5;" parent="1" source="centralized" target="visibility" edge="1">
                    <mxGeometry relative="1" as="geometry"/>
                </mxCell>
                <mxCell id="visibility-impact1" style="edgeStyle=orthogonalEdgeStyle;rounded=1;orthogonalLoop=1;jettySize=auto;html=1;strokeColor=#d68910;strokeWidth=5;" parent="1" source="visibility" target="impact1" edge="1">
                    <mxGeometry relative="1" as="geometry"/>
                </mxCell>
                <mxCell id="visibility-impact2" style="edgeStyle=orthogonalEdgeStyle;rounded=1;orthogonalLoop=1;jettySize=auto;html=1;strokeColor=#1e8449;strokeWidth=5;" parent="1" source="visibility" target="impact2" edge="1">
                    <mxGeometry relative="1" as="geometry"/>
                </mxCell>
                <mxCell id="legend-title" value="COLOR LEGEND" style="text;html=1;strokeColor=none;fillColor=none;align=left;verticalAlign=middle;whiteSpace=wrap;rounded=0;fontSize=16;fontStyle=1" parent="1" vertex="1">
                    <mxGeometry x="1150" y="120" width="240" height="30" as="geometry"/>
                </mxCell>
                <mxCell id="legend1" value="Blue Arrows = File Storage" style="text;html=1;strokeColor=#2980b9;fillColor=#ebf5fb;align=left;verticalAlign=middle;whiteSpace=wrap;rounded=1;fontSize=12;strokeWidth=2" parent="1" vertex="1">
                    <mxGeometry x="1150" y="160" width="240" height="30" as="geometry"/>
                </mxCell>
                <mxCell id="legend2" value="Teal Arrows = Spreadsheet Data" style="text;html=1;strokeColor=#16a085;fillColor=#e8f8f5;align=left;verticalAlign=middle;whiteSpace=wrap;rounded=1;fontSize=12;strokeWidth=2" parent="1" vertex="1">
                    <mxGeometry x="1150" y="200" width="240" height="30" as="geometry"/>
                </mxCell>
                <mxCell id="legend3" value="Green Arrows = QuickBooks" style="text;html=1;strokeColor=#27ae60;fillColor=#eafaf1;align=left;verticalAlign=middle;whiteSpace=wrap;rounded=1;fontSize=12;strokeWidth=2" parent="1" vertex="1">
                    <mxGeometry x="1150" y="240" width="240" height="30" as="geometry"/>
                </mxCell>
                <mxCell id="legend4" value="Yellow Arrows = Notifications" style="text;html=1;strokeColor=#f39c12;fillColor=#fef9e7;align=left;verticalAlign=middle;whiteSpace=wrap;rounded=1;fontSize=12;strokeWidth=2" parent="1" vertex="1">
                    <mxGeometry x="1150" y="280" width="240" height="30" as="geometry"/>
                </mxCell>
                <mxCell id="legend5" value="Purple Arrows = Reports/Analytics" style="text;html=1;strokeColor=#8e44ad;fillColor=#f4ecf7;align=left;verticalAlign=middle;whiteSpace=wrap;rounded=1;fontSize=12;strokeWidth=2" parent="1" vertex="1">
                    <mxGeometry x="1150" y="320" width="240" height="30" as="geometry"/>
                </mxCell>
                <mxCell id="legend6" value="Dark Blue = Data Integration" style="text;html=1;strokeColor=#1a5490;fillColor=#d6eaf8;align=left;verticalAlign=middle;whiteSpace=wrap;rounded=1;fontSize=12;strokeWidth=2" parent="1" vertex="1">
                    <mxGeometry x="1150" y="360" width="240" height="30" as="geometry"/>
                </mxCell>
            </root>
        </mxGraphModel>
    </diagram>
</mxfile>